<svg xmlns="http://www.w3.org/2000/svg" version="1.1" xmlns:xlink="http://www.w3.org/1999/xlink" xmlns:svgjs="http://svgjs.dev/svgjs" width="2000" height="858" viewBox="0 0 2000 858"><g transform="matrix(1,0,0,1,-1.2119174462479805,-1.1388866885656626)"><svg viewBox="0 0 396 170" data-background-color="#ffffff" preserveAspectRatio="xMidYMid meet" height="858" width="2000" xmlns="http://www.w3.org/2000/svg" xmlns:xlink="http://www.w3.org/1999/xlink"><g id="tight-bounds" transform="matrix(1,0,0,1,0.23995965435710787,0.22579826368067302)"><svg viewBox="0 0 395.52 169.5484396103356" height="169.5484396103356" width="395.52"><g><svg viewBox="0 0 576.6643693371968 247.2" height="169.5484396103356" width="395.52"><g transform="matrix(1,0,0,1,221.24726298351922,0)"><svg viewBox="0 0 355.4171063536776 247.2" height="247.2" width="355.4171063536776"><g id="textblocktransform"><svg viewBox="0 0 355.4171063536776 247.2" height="247.2" width="355.4171063536776" id="textblock"><g><svg viewBox="0 0 355.4171063536776 247.2" height="247.2" width="355.4171063536776"><path d="M354.585 53.02C352.914 27.36 348.152 20.227 348.152 20.227 333.532-6.202 315.286-0.506 298.894 3.292 269.954 3.446 241.131 9.091 212.258 12.119 151.655 12.581 90.534 4.986 30.231 23.717 24.567 29.464-5.877 24.846 1.008 56.304 2.812 69.39 9.395 83.913 9.195 95.922 10.097 98.026 11.35 93.202 11.885 96.23 13.756 104.39 16.814 100.541 19.321 105.365 15.828 118.246 18.335 128.971 20.724 140.21 16.513 143.135 11.116 141.749 8.694 151.449 8.443 158.479 7.09 157.145 5.602 156.837 4.516 156.632 2.328 157.402 2.695 159.608 3.948 167.152-1.432 171.514 1.943 178.904-0.379 186.91 3.547 193.838 3.013 202.511 2.946 204.255 3.313 205.744 3.898 206.154 6.488 208.361 2.712 212.672 3.113 217.342 29.68 249.262 58.503 227.195 85.722 241.872 92.79 231.608 87.476 245.516 90.3 243.36 92.506 240.846 94.11 251.263 96.599 245.362 96.984 243.668 96.399 239.665 97.769 240.435 98.487 240.846 99.122 240.743 99.223 238.382 99.373 234.841 98.053 237.048 97.702 235.201 101.495 225.861 100.559 248.081 104.118 247.158 103.951 244.438 102.915 240.538 105.037 241.051 107.143 237.151 107.209 233.918 109.081 242.693 109.148 244.592 109.482 245.926 110.017 246.85 115.865 237.305 121.679 250.237 127.812 245.926 131.571 241.205 135.18 248.492 138.99 246.696 140.327 245.259 141.68 242.693 142.967 247.004 158.723 247.928 175.516 244.079 190.453 247.158 230.371 241.41 273.029 249.518 315.119 241.923 325.044 238.998 335.353 234.841 345.027 231.506 345.027 231.506 352.864 222.371 352.864 181.316S354.535 145.393 354.786 112.703C355.036 80.013 356.206 78.679 354.535 53.02Z" opacity="1" fill="#ff5403" data-fill-palette-color="tertiary"></path><g transform="matrix(1,0,0,1,55.76832,26.230666666666668)"><svg width="243.8804663536776" viewBox="49.45 -38.9 106.7 82.2" height="194.73866666666666" data-palette-color="#ffffff"><svg></svg><svg></svg><g class="wordmark-text-0" data-fill-palette-color="quaternary" id="text-0"><path transform="translate(48.45,0)" d="M1 0v-8.2h2.5v-22.5h-2.5v-8.2h22.95c4.167 0 7.417 0.85 9.75 2.55 2.333 1.7 3.5 4.133 3.5 7.3v0c0 1.967-0.467 3.623-1.4 4.97-0.933 1.353-2.027 2.37-3.28 3.05-1.247 0.687-2.453 1.147-3.62 1.38v0 0.5c2.367 0.233 4.5 0.983 6.4 2.25 1.9 1.267 2.85 3.533 2.85 6.8v0c0 3.5-1.317 6.057-3.95 7.67-2.633 1.62-6.05 2.43-10.25 2.43v0zM17.5-22.5h2.7c0.967 0 1.693-0.26 2.18-0.78 0.48-0.513 0.72-1.32 0.72-2.42v0-1.8c0-1.1-0.24-1.91-0.72-2.43-0.487-0.513-1.213-0.77-2.18-0.77v0h-2.7zM17.5-8.2h3.05c0.967 0 1.693-0.257 2.18-0.77 0.48-0.52 0.72-1.33 0.72-2.43v0-2.2c0-1.1-0.24-1.91-0.72-2.43-0.487-0.513-1.213-0.77-2.18-0.77v0h-3.05zM52.25-30.55h-10.2v-8.35h10.2zM55.55 0h-15.9v-8.2h2.2v-11.4h-2.2v-8.2h13.7v19.6h2.2zM69.3 0.7c-3.533 0-6.193-0.86-7.98-2.58-1.78-1.713-2.67-4.603-2.67-8.67v0-9.05h-2.2v-8.2c1.267 0 2.217-0.327 2.85-0.98 0.633-0.647 0.95-1.537 0.95-2.67v0-2.25h10.6v5.9h6.75v8.2h-6.75v8.2c0 1.1 0.243 1.91 0.73 2.43 0.48 0.513 1.203 0.77 2.17 0.77v0c1.267 0 2.65-0.15 4.15-0.45v0 7.85c-0.933 0.367-2.19 0.71-3.77 1.03-1.587 0.313-3.197 0.47-4.83 0.47zM94.4 0.7c-4.733 0-8.433-1.243-11.1-3.73-2.667-2.48-4-6.103-4-10.87v0c0-4.767 1.333-8.393 4-10.88 2.667-2.48 6.367-3.72 11.1-3.72v0c4.7 0 8.09 1.223 10.17 3.67 2.087 2.453 3.13 5.497 3.13 9.13v0 3.6h-16.2v0.3c0 1.233 0.367 2.14 1.1 2.72 0.733 0.587 1.95 0.88 3.65 0.88v0c2.033 0 3.967-0.15 5.8-0.45 1.833-0.3 3.433-0.683 4.8-1.15v0 8c-1.167 0.633-2.877 1.207-5.13 1.72-2.247 0.52-4.687 0.78-7.32 0.78zM91.5-17.6h5.8v-0.6c0-1.133-0.243-1.95-0.73-2.45-0.48-0.5-1.203-0.75-2.17-0.75v0c-0.967 0-1.693 0.257-2.18 0.77-0.48 0.52-0.72 1.33-0.72 2.43v0z" fill="#ffffff" fill-rule="nonzero" stroke="none" stroke-width="1" stroke-linecap="butt" stroke-linejoin="miter" stroke-miterlimit="10" stroke-dasharray="" stroke-dashoffset="0" font-family="none" font-weight="none" font-size="none" text-anchor="none" style="mix-blend-mode: normal" data-fill-palette-color="quaternary" opacity="1"></path><path transform="translate(50.9,42.6)" d="M56.15-38.9v8.2h-2.5v22.5h2.5v8.2h-18.9v-8.2h2.4v-17.5l-8.5 25.7h-7.4l-8.75-25.45v17.25h2.4v8.2h-16.4v-8.2h2.5v-22.5h-2.5v-8.2h22.9l5.2 15.6 5-15.6zM72.95 0.7c-4.733 0-8.433-1.243-11.1-3.73-2.667-2.48-4-6.103-4-10.87v0c0-4.767 1.333-8.393 4-10.88 2.667-2.48 6.367-3.72 11.1-3.72v0c4.7 0 8.093 1.223 10.18 3.67 2.08 2.453 3.12 5.497 3.12 9.13v0 3.6h-16.2v0.3c0 1.233 0.367 2.14 1.1 2.72 0.733 0.587 1.95 0.88 3.65 0.88v0c2.033 0 3.967-0.15 5.8-0.45 1.833-0.3 3.433-0.683 4.8-1.15v0 8c-1.167 0.633-2.873 1.207-5.12 1.72-2.253 0.52-4.697 0.78-7.33 0.78zM70.05-17.6h5.8v-0.6c0-1.133-0.24-1.95-0.72-2.45-0.487-0.5-1.213-0.75-2.18-0.75v0c-0.967 0-1.69 0.257-2.17 0.77-0.487 0.52-0.73 1.33-0.73 2.43v0zM100.45-10.95h-10.3l-2.3-25.45v-2.5h14.95v2.5zM100.95 0h-11.3v-8.2h11.3z" fill="#ffffff" fill-rule="nonzero" stroke="none" stroke-width="1" stroke-linecap="butt" stroke-linejoin="miter" stroke-miterlimit="10" stroke-dasharray="" stroke-dashoffset="0" font-family="none" font-weight="none" font-size="none" text-anchor="none" style="mix-blend-mode: normal" data-fill-palette-color="quaternary" opacity="1"></path></g></svg></g></svg></g></svg></g></svg></g><g transform="matrix(1,0,0,1,0,33.06859847827255)"><svg viewBox="0 0 199.87947227118119 181.0628030434549" height="181.0628030434549" width="199.87947227118119"><g><svg xmlns="http://www.w3.org/2000/svg" xmlns:xlink="http://www.w3.org/1999/xlink" version="1.1" x="0" y="0" viewBox="4.955451682079951 6.846623716633602 40.04454831792004 36.27475139225222" enable-background="new 0 0 50 50" xml:space="preserve" height="181.0628030434549" width="199.87947227118119" class="icon-icon-0" data-fill-palette-color="accent" id="icon-0"><g fill="#606160" data-fill-palette-color="accent"><path fill="#606160" d="M25.138 12.188c-8.363 0-15.141 6.78-15.141 15.141 0 8.362 6.778 15.142 15.141 15.142 8.361 0 15.141-6.779 15.141-15.142C40.279 18.967 33.499 12.188 25.138 12.188zM34.203 27.58C33.11 39.231 17.15 39.524 16.446 27.328c1.445 10.038 12.134 10.185 15.652 4.41 0.466-1 0.968-1.051 1.318-4.236 0.141-0.609-0.304-3.075-0.883-4.002-0.887-1.999-2.501-3.096-3.812-3.888-1.315-0.717-2.583-0.829-3.583-0.975 2.641 0.155 3.664 0.359 5.987 2.09C33.74 23.044 34.394 26.316 34.203 27.58z" data-fill-palette-color="accent"></path><path fill="#606160" d="M44.15 6.937c0 0-3.242 1.735-3.646 5.908 0 11.196-0.418 9.184 1.253 11.36 0 0 0.222 0.114 0.236 1.058-0.233 13.9-0.18 10.039-0.252 17.54h0.007c0 0.422 2.421 0.43 2.421-0.009l-0.655-17.516c0 0 0.044-0.988 0.261-1.104l0.885-1.091c0 0 0.296-0.219 0.34-0.694C44.646 8.117 44.949 6.453 44.15 6.937z" data-fill-palette-color="accent"></path><path fill="#606160" d="M8.548 20.873c0.086-1.955 2.165-2.043 2.002-3.586-0.003-0.644-0.012-10.41-0.656-10.41-0.526-0.043-0.317 7.584-0.317 8.112-0.017 0.382-0.597 0.394-0.635 0.009-0.034-1-0.062-3.776-0.2-7.166C8.667 6.651 8.388 6.717 8.295 7.206c-0.203 0.985-0.249 8.355-0.216 7.776-0.021 0.377-0.612 0.365-0.626-0.002C7.662 5.44 6.76 3.05 6.76 14.595c0 0.348 0.035 0.672-0.316 0.672-0.397 0-0.318-0.478-0.318-0.878C6.024 8.047 6.06 9.388 5.968 7.594H5.959C5.926 6.558 5.47 6.678 5.47 7.741c-0.539 9.284-0.87 9.891 0.13 10.731 2.151 2.273 1.695-0.82 0.777 23.631 0 0.213 0.642 0.386 1.441 0.386 0.347 0 1.434-0.063 1.434-0.409C8.996 28.564 9.157 33.402 8.548 20.873z" data-fill-palette-color="accent"></path></g></svg></g></svg></g></svg></g><defs></defs></svg><rect width="395.52" height="169.5484396103356" fill="none" stroke="none" visibility="hidden"></rect></g></svg></g></svg>