<svg xmlns="http://www.w3.org/2000/svg" version="1.1" xmlns:xlink="http://www.w3.org/1999/xlink" xmlns:svgjs="http://svgjs.dev/svgjs" width="2000" height="494" viewBox="0 0 2000 494"><g transform="matrix(1,0,0,1,-1.211977295661086,-0.9299803581176604)"><svg viewBox="0 0 396 98" data-background-color="#ffffff" preserveAspectRatio="xMidYMid meet" height="494" width="2000" xmlns="http://www.w3.org/2000/svg" xmlns:xlink="http://www.w3.org/1999/xlink"><g id="tight-bounds" transform="matrix(1,0,0,1,0.23997150454090388,0.18449003055775393)"><svg viewBox="0 0 395.52 97.63101993888448" height="97.63101993888448" width="395.52"><g><svg viewBox="0 0 555.2042512366493 137.04782899129938" height="97.63101993888448" width="395.52"><g transform="matrix(1,0,0,1,159.68425123664935,24.515200710005644)"><svg viewBox="0 0 395.52 88.0174275712881" height="88.0174275712881" width="395.52"><g id="textblocktransform"><svg viewBox="0 0 395.52 88.0174275712881" height="88.0174275712881" width="395.52" id="textblock"><g><svg viewBox="0 0 395.52 88.0174275712881" height="88.0174275712881" width="395.52"><path d="M394.594 18.878C392.735 9.742 387.435 7.202 387.435 7.202 371.165-2.208 350.86-0.18 332.619 1.172 300.414 1.227 268.339 3.237 236.208 4.315 168.767 4.479 100.749 1.775 33.643 8.445 27.339 10.491-6.54 8.847 1.121 20.047 3.129 24.707 10.456 29.878 10.232 34.154 11.236 34.903 12.631 33.185 13.226 34.263 15.309 37.169 18.711 35.798 21.501 37.516 17.614 42.102 20.403 45.921 23.062 49.923 18.377 50.964 12.371 50.471 9.675 53.924 9.396 56.428 7.89 55.953 6.235 55.843 5.026 55.77 2.59 56.044 2.999 56.83 4.394 59.516-1.594 61.069 2.162 63.7-0.422 66.551 3.948 69.017 3.353 72.105 3.278 72.727 3.687 73.257 4.338 73.403 7.22 74.188 3.018 75.723 3.464 77.386 33.029 88.752 65.104 80.894 95.394 86.12 103.259 82.466 97.346 87.418 100.489 86.65 102.943 85.755 104.728 89.464 107.499 87.363 107.927 86.76 107.276 85.335 108.8 85.609 109.6 85.755 110.307 85.718 110.418 84.878 110.586 83.617 109.117 84.403 108.726 83.745 112.947 80.419 111.906 88.331 115.866 88.002 115.68 87.034 114.528 85.645 116.889 85.828 119.232 84.439 119.306 83.288 121.389 86.413 121.463 87.089 121.835 87.564 122.43 87.893 128.938 84.494 135.409 89.099 142.233 87.564 146.417 85.883 150.433 88.477 154.672 87.838 156.16 87.326 157.666 86.413 159.098 87.948 176.632 88.276 195.319 86.906 211.943 88.002 256.364 85.956 303.836 88.843 350.674 86.139 361.719 85.097 373.192 83.617 383.958 82.429 383.958 82.429 392.679 79.177 392.679 64.559S394.538 51.768 394.817 40.129C395.096 28.489 396.398 28.014 394.538 18.878Z" opacity="1" fill="#ff5403" data-fill-palette-color="tertiary"></path><g transform="matrix(1,0,0,1,55.76832,26.230666666666668)"><svg width="283.98335999999995" viewBox="1.34 -36.55 297.93 37.309999999999995" height="35.55609423795476" data-palette-color="#ffffff"><path d="M37.55-17.36L37.55-17.36Q37.55-14.87 36.9-12.56 36.25-10.25 35.08-8.24 33.91-6.23 32.25-4.57 30.59-2.91 28.59-1.72 26.59-0.54 24.27 0.11 21.95 0.76 19.46 0.76L19.46 0.76Q16.97 0.76 14.66 0.11 12.35-0.54 10.34-1.72 8.33-2.91 6.67-4.57 5-6.23 3.82-8.24 2.64-10.25 1.99-12.56 1.34-14.87 1.34-17.36L1.34-17.36Q1.34-19.85 1.99-22.17 2.64-24.49 3.82-26.49 5-28.49 6.67-30.15 8.33-31.81 10.34-32.98 12.35-34.16 14.66-34.8 16.97-35.45 19.46-35.45L19.46-35.45Q21.95-35.45 24.27-34.8 26.59-34.16 28.59-32.98 30.59-31.81 32.25-30.15 33.91-28.49 35.08-26.49 36.25-24.49 36.9-22.17 37.55-19.85 37.55-17.36ZM30.59-17.36L30.59-17.36Q30.59-19.65 29.71-21.69 28.83-23.73 27.33-25.23 25.83-26.73 23.79-27.61 21.75-28.49 19.46-28.49L19.46-28.49Q17.14-28.49 15.11-27.61 13.09-26.73 11.57-25.23 10.06-23.73 9.18-21.69 8.3-19.65 8.3-17.36L8.3-17.36Q8.3-15.06 9.18-13.05 10.06-11.04 11.57-9.52 13.09-8.01 15.11-7.13 17.14-6.25 19.46-6.25L19.46-6.25Q21.75-6.25 23.79-7.13 25.83-8.01 27.33-9.52 28.83-11.04 29.71-13.05 30.59-15.06 30.59-17.36ZM48.09-14.4L48.09 0 41.43 0 41.43-26.15 43.04-26.15 45.24-23.05Q46.85-24.51 48.9-25.31 50.95-26.1 53.15-26.1L53.15-26.1 59.03-26.1 59.03-19.46 53.15-19.46Q52.1-19.46 51.17-19.07 50.24-18.68 49.56-17.99 48.87-17.31 48.48-16.38 48.09-15.45 48.09-14.4L48.09-14.4ZM86.91-36.55L86.91 0 85.3 0 82.71-3.59Q81.76-2.73 80.7-1.99 79.63-1.25 78.46-0.7 77.29-0.15 76.06 0.17 74.82 0.49 73.55 0.49L73.55 0.49Q70.8 0.49 68.37-0.55 65.94-1.59 64.12-3.43 62.3-5.27 61.25-7.8 60.2-10.33 60.2-13.31L60.2-13.31Q60.2-16.26 61.25-18.8 62.3-21.34 64.12-23.19 65.94-25.05 68.37-26.1 70.8-27.15 73.55-27.15L73.55-27.15Q74.43-27.15 75.37-27 76.31-26.86 77.2-26.53 78.1-26.2 78.88-25.66 79.66-25.12 80.2-24.34L80.2-24.34 80.2-36.55 86.91-36.55ZM80.2-13.31L80.2-13.31Q80.2-14.67 79.67-15.95 79.15-17.24 78.24-18.23 77.34-19.21 76.13-19.81 74.92-20.41 73.55-20.41L73.55-20.41Q72.19-20.41 70.98-19.92 69.77-19.43 68.88-18.52 67.99-17.6 67.48-16.28 66.96-14.97 66.96-13.31L66.96-13.31Q66.96-11.87 67.48-10.57 67.99-9.28 68.88-8.3 69.77-7.32 70.98-6.76 72.19-6.2 73.55-6.2L73.55-6.2Q74.92-6.2 76.13-6.8 77.34-7.4 78.24-8.39 79.15-9.38 79.67-10.66 80.2-11.94 80.2-13.31ZM114.89-21.46L102.39-6.4Q102.78-6.27 103.17-6.24 103.56-6.2 103.95-6.2L103.95-6.2Q104.92-6.2 105.83-6.47 106.73-6.74 107.52-7.24 108.32-7.74 108.94-8.46 109.56-9.18 109.95-10.06L109.95-10.06 114.84-5.15Q113.91-3.83 112.7-2.78 111.49-1.73 110.09-1 108.68-0.27 107.13 0.11 105.58 0.49 103.95 0.49L103.95 0.49Q101.19 0.49 98.76-0.54 96.33-1.56 94.51-3.39 92.69-5.22 91.64-7.75 90.59-10.28 90.59-13.31L90.59-13.31Q90.59-16.41 91.64-18.97 92.69-21.53 94.51-23.34 96.33-25.15 98.76-26.15 101.19-27.15 103.95-27.15L103.95-27.15Q105.58-27.15 107.15-26.76 108.71-26.37 110.11-25.63 111.52-24.9 112.74-23.84 113.96-22.78 114.89-21.46L114.89-21.46ZM98.04-9.84L105.8-20.14Q105.34-20.31 104.89-20.36 104.44-20.41 103.95-20.41L103.95-20.41Q102.58-20.41 101.37-19.91 100.16-19.41 99.27-18.48 98.38-17.55 97.87-16.25 97.36-14.94 97.36-13.31L97.36-13.31Q97.36-12.94 97.39-12.48 97.43-12.01 97.51-11.54 97.6-11.06 97.72-10.62 97.84-10.18 98.04-9.84L98.04-9.84ZM124.89-14.4L124.89 0 118.23 0 118.23-26.15 119.84-26.15 122.04-23.05Q123.65-24.51 125.7-25.31 127.75-26.1 129.95-26.1L129.95-26.1 135.83-26.1 135.83-19.46 129.95-19.46Q128.9-19.46 127.97-19.07 127.04-18.68 126.36-17.99 125.67-17.31 125.28-16.38 124.89-15.45 124.89-14.4L124.89-14.4ZM188.36-25L188.36 0 181.38 0 181.38-25Q181.38-25.73 181.1-26.37 180.82-27 180.34-27.48 179.87-27.95 179.23-28.22 178.6-28.49 177.87-28.49L177.87-28.49Q177.13-28.49 176.5-28.22 175.86-27.95 175.39-27.48 174.91-27 174.64-26.37 174.37-25.73 174.37-25L174.37-25 174.37 0 167.37 0 167.37-25Q167.37-25.73 167.1-26.37 166.83-27 166.35-27.48 165.88-27.95 165.24-28.22 164.61-28.49 163.88-28.49L163.88-28.49Q163.14-28.49 162.51-28.22 161.87-27.95 161.4-27.48 160.92-27 160.65-26.37 160.39-25.73 160.39-25L160.39-25 160.39 0 153.38 0 153.38-25Q153.38-27.17 154.2-29.09 155.01-31.01 156.44-32.43 157.87-33.86 159.79-34.68 161.7-35.5 163.88-35.5L163.88-35.5Q165.83-35.5 167.64-34.8 169.44-34.11 170.88-32.79L170.88-32.79Q172.32-34.11 174.12-34.8 175.91-35.5 177.87-35.5L177.87-35.5Q180.04-35.5 181.96-34.68 183.87-33.86 185.3-32.43 186.73-31.01 187.55-29.09 188.36-27.17 188.36-25L188.36-25ZM215.02 0L212.82-3.05Q212.02-2.32 211.1-1.67 210.19-1.03 209.19-0.55 208.19-0.07 207.12 0.21 206.06 0.49 204.96 0.49L204.96 0.49Q202.55 0.49 200.42-0.37 198.3-1.22 196.7-2.8 195.1-4.37 194.18-6.63 193.27-8.89 193.27-11.69L193.27-11.69 193.27-26.15 199.91-26.15 199.91-11.69Q199.91-10.38 200.31-9.34 200.71-8.3 201.4-7.59 202.08-6.88 203-6.52 203.91-6.15 204.96-6.15L204.96-6.15Q205.99-6.15 206.9-6.63 207.82-7.1 208.5-7.89 209.19-8.67 209.58-9.66 209.97-10.64 209.97-11.69L209.97-11.69 209.97-26.15 216.63-26.15 216.63 0 215.02 0ZM228.37-14.94L228.37 0 221.71 0 221.71-26.15 223.32-26.15 225.52-23.61Q227.13-25.07 229.17-25.87 231.21-26.66 233.43-26.66L233.43-26.66Q235.82-26.66 237.94-25.74 240.07-24.83 241.65-23.23 243.24-21.63 244.16-19.49 245.07-17.36 245.07-14.94L245.07-14.94 245.07 0 238.41 0 238.41-14.94Q238.41-15.97 238.02-16.88 237.63-17.8 236.94-18.48 236.26-19.17 235.36-19.56 234.45-19.95 233.43-19.95L233.43-19.95Q232.38-19.95 231.45-19.56 230.52-19.17 229.84-18.48 229.15-17.8 228.76-16.88 228.37-15.97 228.37-14.94L228.37-14.94ZM272.66-20.95L272.66-20.95 267.78-16.04Q267.41-17.07 266.77-17.88 266.14-18.7 265.35-19.26 264.55-19.82 263.62-20.12 262.7-20.41 261.72-20.41L261.72-20.41Q260.35-20.41 259.14-19.85 257.94-19.29 257.05-18.27 256.15-17.26 255.64-15.87 255.13-14.48 255.13-12.79L255.13-12.79Q255.13-11.43 255.64-10.23 256.15-9.03 257.05-8.13 257.94-7.23 259.14-6.71 260.35-6.2 261.72-6.2L261.72-6.2Q262.7-6.2 263.6-6.47 264.5-6.74 265.3-7.24 266.09-7.74 266.71-8.46 267.34-9.18 267.73-10.06L267.73-10.06 272.61-5.15Q271.68-3.83 270.47-2.78 269.26-1.73 267.86-1 266.46-0.27 264.91 0.11 263.36 0.49 261.72 0.49L261.72 0.49Q258.96 0.49 256.53-0.55 254.1-1.59 252.28-3.39 250.47-5.2 249.42-7.62 248.37-10.03 248.37-12.79L248.37-12.79Q248.37-15.8 249.42-18.41 250.47-21.02 252.28-22.96 254.1-24.9 256.53-26.03 258.96-27.15 261.72-27.15L261.72-27.15Q263.36-27.15 264.93-26.73 266.51-26.32 267.93-25.52 269.36-24.73 270.57-23.58 271.78-22.44 272.66-20.95ZM282.57-14.94L282.57 0 275.9 0 275.9-36.55 282.57-36.55 282.57-25Q283.76-25.9 285.03-26.28 286.3-26.66 287.62-26.66L287.62-26.66Q290.04-26.66 292.16-25.74 294.29-24.83 295.86-23.23 297.44-21.63 298.35-19.49 299.27-17.36 299.27-14.94L299.27-14.94 299.27 0 292.55 0 292.55-14.94 292.6-14.94Q292.6-15.97 292.21-16.88 291.82-17.8 291.14-18.48 290.45-19.17 289.55-19.56 288.65-19.95 287.62-19.95L287.62-19.95Q286.57-19.95 285.64-19.56 284.72-19.17 284.03-18.48 283.35-17.8 282.96-16.88 282.57-15.97 282.57-14.94L282.57-14.94Z" opacity="1" transform="matrix(1,0,0,1,0,0)" fill="#ffffff" class="wordmark-text-0" data-fill-palette-color="quaternary" id="text-0"></path></svg></g></svg></g></svg></g></svg></g><g><svg viewBox="0 0 151.29031073332993 137.04782899129938" height="137.04782899129938" width="151.29031073332993"><g><svg xmlns="http://www.w3.org/2000/svg" xmlns:xlink="http://www.w3.org/1999/xlink" version="1.1" x="0" y="0" viewBox="4.955451682079951 6.846623716633602 40.04454831792004 36.27475139225222" enable-background="new 0 0 50 50" xml:space="preserve" height="137.04782899129938" width="151.29031073332993" class="icon-icon-0" data-fill-palette-color="accent" id="icon-0"><g fill="#606160" data-fill-palette-color="accent"><path fill="#606160" d="M25.138 12.188c-8.363 0-15.141 6.78-15.141 15.141 0 8.362 6.778 15.142 15.141 15.142 8.361 0 15.141-6.779 15.141-15.142C40.279 18.967 33.499 12.188 25.138 12.188zM34.203 27.58C33.11 39.231 17.15 39.524 16.446 27.328c1.445 10.038 12.134 10.185 15.652 4.41 0.466-1 0.968-1.051 1.318-4.236 0.141-0.609-0.304-3.075-0.883-4.002-0.887-1.999-2.501-3.096-3.812-3.888-1.315-0.717-2.583-0.829-3.583-0.975 2.641 0.155 3.664 0.359 5.987 2.09C33.74 23.044 34.394 26.316 34.203 27.58z" data-fill-palette-color="accent"></path><path fill="#606160" d="M44.15 6.937c0 0-3.242 1.735-3.646 5.908 0 11.196-0.418 9.184 1.253 11.36 0 0 0.222 0.114 0.236 1.058-0.233 13.9-0.18 10.039-0.252 17.54h0.007c0 0.422 2.421 0.43 2.421-0.009l-0.655-17.516c0 0 0.044-0.988 0.261-1.104l0.885-1.091c0 0 0.296-0.219 0.34-0.694C44.646 8.117 44.949 6.453 44.15 6.937z" data-fill-palette-color="accent"></path><path fill="#606160" d="M8.548 20.873c0.086-1.955 2.165-2.043 2.002-3.586-0.003-0.644-0.012-10.41-0.656-10.41-0.526-0.043-0.317 7.584-0.317 8.112-0.017 0.382-0.597 0.394-0.635 0.009-0.034-1-0.062-3.776-0.2-7.166C8.667 6.651 8.388 6.717 8.295 7.206c-0.203 0.985-0.249 8.355-0.216 7.776-0.021 0.377-0.612 0.365-0.626-0.002C7.662 5.44 6.76 3.05 6.76 14.595c0 0.348 0.035 0.672-0.316 0.672-0.397 0-0.318-0.478-0.318-0.878C6.024 8.047 6.06 9.388 5.968 7.594H5.959C5.926 6.558 5.47 6.678 5.47 7.741c-0.539 9.284-0.87 9.891 0.13 10.731 2.151 2.273 1.695-0.82 0.777 23.631 0 0.213 0.642 0.386 1.441 0.386 0.347 0 1.434-0.063 1.434-0.409C8.996 28.564 9.157 33.402 8.548 20.873z" data-fill-palette-color="accent"></path></g></svg></g></svg></g></svg></g><defs></defs></svg><rect width="395.52" height="97.63101993888448" fill="none" stroke="none" visibility="hidden"></rect></g></svg></g></svg>